<svg width="1920" height="1920" viewBox="0 0 1920 1920" fill="none" xmlns="http://www.w3.org/2000/svg">
<rect width="1920" height="1920" fill="black"/>
<path d="M1080.74 1706.64V699.12H888.439V582H1388.44V699.12H1205.18V1706.64H1080.74Z" fill="white"/>
<path d="M913.719 1473.64C878.746 1473.64 847.84 1467.54 821 1455.34C794.159 1443.14 771.793 1426.87 753.9 1406.54C736.819 1387.02 723.806 1365.06 714.859 1340.66C705.913 1315.45 701.439 1290.23 701.439 1265.02C701.439 1239.81 705.913 1215 714.859 1190.6C723.806 1165.39 736.819 1142.61 753.9 1122.28C771.793 1102.76 794.159 1086.9 821 1074.7C847.84 1062.5 878.746 1056.4 913.719 1056.4H1372.44C1409.04 1056.4 1440.35 1062.5 1466.38 1074.7C1492.41 1086.9 1513.96 1102.76 1531.04 1122.28C1548.93 1142.61 1562.35 1165.39 1571.3 1190.6C1580.25 1215 1584.72 1239.81 1584.72 1265.02C1584.72 1290.23 1580.25 1315.45 1571.3 1340.66C1562.35 1365.06 1548.93 1387.02 1531.04 1406.54C1513.96 1426.87 1492.41 1443.14 1466.38 1455.34C1440.35 1467.54 1409.04 1473.64 1372.44 1473.64H913.719ZM1372.44 1349.2C1402.53 1349.2 1424.9 1341.07 1439.54 1324.8C1453.37 1307.72 1460.28 1287.79 1460.28 1265.02C1460.28 1242.25 1453.37 1222.73 1439.54 1206.46C1424.9 1189.38 1402.53 1180.84 1372.44 1180.84H913.719C883.626 1180.84 861.666 1189.38 847.839 1206.46C833.199 1222.73 825.879 1242.25 825.879 1265.02C825.879 1287.79 833.199 1307.72 847.839 1324.8C861.666 1341.07 883.626 1349.2 913.719 1349.2H1372.44Z" fill="white"/>
<path d="M336 1082.64V214H455.56L615.38 673.94H617.82L776.42 214H897.2V1082.64H772.76V554.38H770.32L647.1 927.7H584.88L462.88 554.38H460.44V1082.64H336Z" fill="white"/>
<path fill-rule="evenodd" clip-rule="evenodd" d="M425.74 943.2C413.539 970.04 407.439 1000.95 407.439 1035.92V1494.64C407.439 1531.24 413.539 1562.55 425.74 1588.58C437.939 1614.61 454.207 1636.16 474.539 1653.24C494.059 1671.13 516.02 1684.55 540.42 1693.5C565.633 1702.45 590.846 1706.92 616.059 1706.92C641.273 1706.92 666.08 1702.45 690.479 1693.5C715.693 1684.55 738.467 1671.13 758.799 1653.24C778.32 1636.16 794.18 1614.61 806.379 1588.58C818.58 1562.55 824.68 1531.24 824.68 1494.64V1035.92C824.68 1000.95 818.58 970.04 806.379 943.2C794.18 916.36 778.32 893.993 758.799 876.1C738.467 859.02 715.693 846.007 690.479 837.06C666.08 828.114 641.273 823.64 616.059 823.64C590.846 823.64 565.633 828.114 540.42 837.06C516.02 846.007 494.059 859.02 474.539 876.1C454.207 893.993 437.939 916.36 425.74 943.2ZM556.279 1561.74C540.014 1547.1 531.879 1524.73 531.879 1494.64V1323.64H700.24V1494.64C700.24 1524.73 691.699 1547.1 674.619 1561.74C658.354 1575.57 638.832 1582.48 616.059 1582.48C593.285 1582.48 573.359 1575.57 556.279 1561.74ZM700.24 1206.64V1035.92C700.24 1005.83 691.699 983.867 674.619 970.04C658.354 955.4 638.832 948.08 616.059 948.08C593.285 948.08 573.359 955.4 556.279 970.04C540.014 983.867 531.879 1005.83 531.879 1035.92V1206.64H700.24Z" fill="white"/>
</svg>
