<svg width="1920" height="1920" viewBox="0 0 1920 1920" fill="none" xmlns="http://www.w3.org/2000/svg">
<rect width="1920" height="1920" fill="white"/>
<path d="M315 1326.89V788.895H315.702L602.962 1196.26L559.417 1186.42L845.974 788.895H847.379V1326.89H745.538V1018.56L751.86 1071.24L576.975 1319.87H575.571L395.77 1071.24L413.329 1022.78V1326.89H315Z" fill="black"/>
<path d="M317.297 624.785C317.297 589.199 324.086 555.486 337.665 523.647C351.244 491.807 369.973 463.713 393.853 439.365C418.201 414.549 446.295 395.117 478.134 381.07C509.974 367.023 544.155 360 580.677 360C616.731 360 650.677 367.023 682.517 381.07C714.357 395.117 742.451 414.549 766.799 439.365C791.615 463.713 810.812 491.807 824.391 523.647C838.438 555.486 845.461 589.199 845.461 624.785C845.461 661.307 838.438 695.488 824.391 727.327C810.812 759.167 791.615 787.261 766.799 811.609C742.451 835.489 714.357 854.218 682.517 867.797C650.677 881.375 616.731 888.165 580.677 888.165C544.155 888.165 509.974 881.375 478.134 867.797C446.295 854.218 418.201 835.489 393.853 811.609C369.973 787.261 351.244 759.167 337.665 727.327C324.086 695.488 317.297 661.307 317.297 624.785ZM422.649 624.785C422.649 647.728 426.629 669.267 434.589 689.401C443.017 709.066 454.489 726.625 469.004 742.076C483.987 757.06 501.078 768.766 520.275 777.194C539.941 785.622 561.245 789.836 584.189 789.836C606.195 789.836 626.563 785.622 645.293 777.194C664.49 768.766 681.112 757.06 695.159 742.076C709.206 726.625 720.21 709.066 728.17 689.401C736.13 669.267 740.109 647.728 740.109 624.785C740.109 601.373 735.895 579.6 727.467 559.466C719.507 539.332 708.27 521.774 693.755 506.79C679.708 491.339 663.085 479.399 643.888 470.971C624.691 462.543 603.854 458.329 581.379 458.329C558.904 458.329 538.068 462.543 518.87 470.971C499.673 479.399 482.817 491.339 468.301 506.79C453.786 521.774 442.549 539.332 434.589 559.466C426.629 579.6 422.649 601.373 422.649 624.785Z" fill="black"/>
<path d="M835.432 575.309H1183.8V673.637H1058.08V1092.24H956.236V673.637H835.432V575.309Z" fill="black"/>
<path d="M743.88 1296.62C743.88 1261.03 750.67 1227.32 764.248 1195.48C777.827 1163.64 796.556 1135.55 820.436 1111.2C844.784 1086.38 872.878 1066.95 904.718 1052.91C936.557 1038.86 970.738 1031.84 1007.26 1031.84C1043.31 1031.84 1077.26 1038.86 1109.1 1052.91C1140.94 1066.95 1169.03 1086.38 1193.38 1111.2C1218.2 1135.55 1237.4 1163.64 1250.97 1195.48C1265.02 1227.32 1272.04 1261.03 1272.04 1296.62C1272.04 1333.14 1265.02 1367.32 1250.97 1399.16C1237.4 1431 1218.2 1459.1 1193.38 1483.44C1169.03 1507.32 1140.94 1526.05 1109.1 1539.63C1077.26 1553.21 1043.31 1560 1007.26 1560C970.738 1560 936.557 1553.21 904.718 1539.63C872.878 1526.05 844.784 1507.32 820.436 1483.44C796.556 1459.1 777.827 1431 764.248 1399.16C750.67 1367.32 743.88 1333.14 743.88 1296.62ZM849.232 1296.62C849.232 1319.56 853.212 1341.1 861.172 1361.24C869.6 1380.9 881.072 1398.46 895.587 1413.91C910.571 1428.9 927.661 1440.6 946.859 1449.03C966.524 1457.46 987.829 1461.67 1010.77 1461.67C1032.78 1461.67 1053.15 1457.46 1071.88 1449.03C1091.07 1440.6 1107.7 1428.9 1121.74 1413.91C1135.79 1398.46 1146.79 1380.9 1154.75 1361.24C1162.71 1341.1 1166.69 1319.56 1166.69 1296.62C1166.69 1273.21 1162.48 1251.44 1154.05 1231.3C1146.09 1211.17 1134.85 1193.61 1120.34 1178.63C1106.29 1163.17 1089.67 1151.23 1070.47 1142.81C1051.27 1134.38 1030.44 1130.16 1007.96 1130.16C985.488 1130.16 964.651 1134.38 945.454 1142.81C926.256 1151.23 909.4 1163.17 894.885 1178.63C880.37 1193.61 869.132 1211.17 861.172 1231.3C853.212 1251.44 849.232 1273.21 849.232 1296.62Z" fill="black"/>
<path d="M1604.07 788.895V1305.82H1502.23V1095.82H1271.16V1305.82H1169.32V788.895H1271.16V997.491H1502.23V788.895H1604.07Z" fill="black"/>
</svg>
