<svg width="1920" height="1920" viewBox="0 0 1920 1920" fill="none" xmlns="http://www.w3.org/2000/svg">
<rect width="1920" height="1920" fill="white"/>
<path d="M235 1082.42V835H235.323L367.429 1022.34L347.403 1017.82L479.186 835H479.832V1082.42H432.997V940.62L435.904 964.845L355.478 1079.19H354.832L272.145 964.845L280.22 942.558V1082.42H235Z" fill="black"/>
<path d="M526.518 963.876C526.518 947.511 529.641 932.007 535.885 917.364C542.13 902.722 550.743 889.802 561.725 878.605C572.922 867.192 585.842 858.256 600.485 851.796C615.127 845.336 630.846 842.106 647.642 842.106C664.223 842.106 679.834 845.336 694.477 851.796C709.119 858.256 722.039 867.192 733.237 878.605C744.649 889.802 753.478 902.722 759.722 917.364C766.182 932.007 769.412 947.511 769.412 963.876C769.412 980.672 766.182 996.391 759.722 1011.03C753.478 1025.68 744.649 1038.6 733.237 1049.79C722.039 1060.78 709.119 1069.39 694.477 1075.63C679.834 1081.88 664.223 1085 647.642 1085C630.846 1085 615.127 1081.88 600.485 1075.63C585.842 1069.39 572.922 1060.78 561.725 1049.79C550.743 1038.6 542.13 1025.68 535.885 1011.03C529.641 996.391 526.518 980.672 526.518 963.876ZM574.968 963.876C574.968 974.427 576.798 984.332 580.459 993.592C584.335 1002.64 589.61 1010.71 596.286 1017.82C603.176 1024.71 611.036 1030.09 619.865 1033.97C628.908 1037.84 638.706 1039.78 649.257 1039.78C659.378 1039.78 668.745 1037.84 677.358 1033.97C686.187 1030.09 693.831 1024.71 700.291 1017.82C706.751 1010.71 711.811 1002.64 715.472 993.592C719.132 984.332 720.963 974.427 720.963 963.876C720.963 953.109 719.025 943.096 715.149 933.837C711.488 924.578 706.32 916.503 699.645 909.612C693.185 902.506 685.541 897.015 676.712 893.14C667.883 889.264 658.301 887.326 647.965 887.326C637.629 887.326 628.047 889.264 619.219 893.14C610.39 897.015 602.638 902.506 595.963 909.612C589.287 916.503 584.119 924.578 580.459 933.837C576.798 943.096 574.968 953.109 574.968 963.876Z" fill="black"/>
<path d="M792.038 844.69H952.244V889.91H894.428V1082.42H847.593V889.91H792.038V844.69Z" fill="black"/>
<path d="M974.743 963.876C974.743 947.511 977.865 932.007 984.11 917.364C990.355 902.722 998.968 889.802 1009.95 878.605C1021.15 867.192 1034.07 858.256 1048.71 851.796C1063.35 845.336 1079.07 842.106 1095.87 842.106C1112.45 842.106 1128.06 845.336 1142.7 851.796C1157.34 858.256 1170.26 867.192 1181.46 878.605C1192.87 889.802 1201.7 902.722 1207.95 917.364C1214.41 932.007 1217.64 947.511 1217.64 963.876C1217.64 980.672 1214.41 996.391 1207.95 1011.03C1201.7 1025.68 1192.87 1038.6 1181.46 1049.79C1170.26 1060.78 1157.34 1069.39 1142.7 1075.63C1128.06 1081.88 1112.45 1085 1095.87 1085C1079.07 1085 1063.35 1081.88 1048.71 1075.63C1034.07 1069.39 1021.15 1060.78 1009.95 1049.79C998.968 1038.6 990.355 1025.68 984.11 1011.03C977.865 996.391 974.743 980.672 974.743 963.876ZM1023.19 963.876C1023.19 974.427 1025.02 984.332 1028.68 993.592C1032.56 1002.64 1037.84 1010.71 1044.51 1017.82C1051.4 1024.71 1059.26 1030.09 1068.09 1033.97C1077.13 1037.84 1086.93 1039.78 1097.48 1039.78C1107.6 1039.78 1116.97 1037.84 1125.58 1033.97C1134.41 1030.09 1142.06 1024.71 1148.52 1017.82C1154.98 1010.71 1160.04 1002.64 1163.7 993.592C1167.36 984.332 1169.19 974.427 1169.19 963.876C1169.19 953.109 1167.25 943.096 1163.37 933.837C1159.71 924.578 1154.54 916.503 1147.87 909.612C1141.41 902.506 1133.77 897.015 1124.94 893.14C1116.11 889.264 1106.53 887.326 1096.19 887.326C1085.85 887.326 1076.27 889.264 1067.44 893.14C1058.61 897.015 1050.86 902.506 1044.19 909.612C1037.51 916.503 1032.34 924.578 1028.68 933.837C1025.02 943.096 1023.19 953.109 1023.19 963.876Z" fill="black"/>
<path d="M1336.12 844.69C1350.98 844.69 1364.22 846.628 1375.85 850.504C1387.48 854.165 1397.17 859.548 1404.92 866.654C1412.88 873.545 1418.91 881.943 1423 891.848C1427.1 901.538 1429.14 912.52 1429.14 924.794C1429.14 934.484 1427.63 944.174 1424.62 953.864C1421.82 963.553 1417.08 972.382 1410.41 980.349C1403.95 988.317 1395.33 994.776 1384.57 999.729C1373.8 1004.47 1360.45 1006.84 1344.52 1006.84H1310.92V1082.42H1264.09V844.69H1336.12ZM1344.19 961.615C1351.3 961.615 1357.22 960.431 1361.96 958.062C1366.7 955.694 1370.36 952.679 1372.94 949.019C1375.74 945.358 1377.68 941.59 1378.75 937.714C1380.05 933.622 1380.69 929.854 1380.69 926.409C1380.69 923.825 1380.26 920.595 1379.4 916.719C1378.75 912.628 1377.25 908.536 1374.88 904.445C1372.51 900.354 1368.85 896.908 1363.9 894.109C1359.16 891.31 1352.7 889.91 1344.52 889.91H1310.92V961.615H1344.19ZM1388.12 990.685L1446.91 1082.42H1392.32L1332.24 991.977L1388.12 990.685Z" fill="black"/>
<path d="M1685.89 844.69V1082.42H1639.05V985.84H1532.79V1082.42H1485.95V844.69H1532.79V940.621H1639.05V844.69H1685.89Z" fill="#11216B"/>
</svg>
