<svg width="1920" height="1920" viewBox="0 0 1920 1920" fill="none" xmlns="http://www.w3.org/2000/svg">
<rect width="1920" height="1920" fill="black" fill-opacity="0"/>
<path fill-rule="evenodd" clip-rule="evenodd" d="M1464.99 810.431C1464.99 787.624 1468.96 767.47 1476.92 749.967C1484.87 732.464 1495.48 717.878 1508.73 706.21C1521.46 695.072 1535.77 686.586 1551.68 680.751C1568.12 674.917 1584.56 672 1600.99 672C1617.43 672 1633.6 674.917 1649.51 680.751C1665.95 686.586 1680.79 695.072 1694.05 706.21C1706.78 717.878 1717.12 732.464 1725.07 749.967C1733.02 767.47 1737 787.624 1737 810.431V1109.57C1737 1133.44 1733.02 1153.86 1725.07 1170.83C1717.12 1187.8 1706.78 1201.86 1694.05 1212.99C1680.79 1224.66 1665.95 1233.41 1649.51 1239.25C1633.6 1245.08 1617.43 1248 1600.99 1248C1584.56 1248 1568.12 1245.08 1551.68 1239.25C1535.77 1233.41 1521.46 1224.66 1508.73 1212.99C1495.48 1201.86 1484.87 1187.8 1476.92 1170.83C1468.96 1153.86 1464.99 1133.44 1464.99 1109.57V810.431ZM1546.11 1109.57C1546.11 1129.19 1551.42 1143.78 1562.02 1153.33C1573.16 1162.34 1586.15 1166.85 1600.99 1166.85C1615.84 1166.85 1628.57 1162.34 1639.17 1153.33C1650.31 1143.78 1655.87 1129.19 1655.87 1109.57V810.431C1655.87 790.807 1650.31 776.486 1639.17 767.47C1628.57 757.923 1615.84 753.149 1600.99 753.149C1586.15 753.149 1573.16 757.923 1562.02 767.47C1551.42 776.486 1546.11 790.807 1546.11 810.431V1109.57Z" fill="white"/>
<path d="M183 676.565V1243.02H264.127V898.532H265.717L345.253 1141.98H385.816L466.148 898.532H467.738V1243.02H548.865V676.565H470.124L366.728 976.498H365.137L260.945 676.565H183Z" fill="white"/>
<path d="M1237.44 752.94V1243.02H1318.56V752.94H1412.42V676.565H1143.58V752.94H1237.44Z" fill="white"/>
<path fill-rule="evenodd" clip-rule="evenodd" d="M644.594 950.865C628.471 934.738 617.036 917.674 610.287 899.672C603.538 881.67 600.726 863.855 601.851 846.229C602.976 829.352 607.1 813.225 614.224 797.848C621.723 782.097 631.283 768.408 642.906 756.782C654.529 745.155 668.027 735.779 683.399 728.654C699.147 721.153 715.644 716.652 732.891 715.152C750.138 714.402 767.76 717.402 785.757 724.153C803.754 730.904 820.813 742.342 836.936 758.469L846.487 768.023L856.057 758.451C872.929 741.574 890.176 729.948 907.798 723.572C925.42 717.196 942.667 714.571 959.539 715.696C977.161 716.821 993.846 721.134 1009.59 728.635C1024.97 735.761 1038.46 745.137 1050.09 756.763C1061.71 768.389 1071.27 782.078 1078.77 797.83C1085.89 813.207 1089.83 829.521 1090.58 846.773C1092.08 864.024 1089.64 881.464 1083.27 899.091C1076.89 916.718 1065.27 933.969 1048.4 950.846L1038.83 960.419L1048.4 969.992C1065.27 986.869 1076.89 1004.12 1083.27 1021.75C1089.64 1039.37 1092.27 1056.63 1091.14 1073.5C1090.02 1091.13 1085.71 1107.82 1078.21 1123.57C1071.08 1138.95 1061.71 1152.45 1050.09 1164.07C1038.46 1175.7 1024.78 1185.26 1009.03 1192.77C993.659 1199.89 977.349 1203.83 960.102 1204.58C942.855 1206.08 925.42 1203.64 907.798 1197.27C890.176 1190.89 872.929 1179.26 856.057 1162.39L846.487 1152.81L836.936 1162.37C820.813 1178.5 803.754 1189.93 785.757 1196.68C767.76 1203.44 749.95 1206.25 732.329 1205.12C715.456 1204 699.334 1199.87 683.962 1192.75C668.214 1185.25 654.529 1175.68 642.906 1164.06C631.283 1152.43 621.91 1138.93 614.786 1123.55C607.287 1107.8 602.788 1091.3 601.289 1074.05C600.539 1056.8 603.538 1039.17 610.287 1021.17C617.036 1003.16 628.471 986.1 644.594 969.973L654.145 960.419L644.594 950.865ZM779.57 815.85L789.122 825.405L711.51 903.038L701.959 893.484C688.086 879.607 681.712 865.731 682.837 851.854C683.962 837.228 689.773 824.664 700.271 814.163C710.77 803.661 723.143 798.036 737.39 797.286C751.638 795.786 765.698 801.974 779.57 815.85ZM846.487 882.786L768.875 960.419L846.487 1038.05L924.099 960.419L846.487 882.786ZM701.959 1027.35L711.51 1017.8L789.122 1095.43L779.57 1104.99C765.698 1118.86 751.825 1125.24 737.953 1124.11C723.33 1122.99 710.77 1117.18 700.271 1106.68C689.773 1096.17 684.149 1083.8 683.399 1069.55C681.9 1055.29 688.086 1041.23 701.959 1027.35ZM913.422 1105.01L903.852 1095.43L981.464 1017.8L991.034 1027.37C1004.91 1041.25 1011.28 1055.5 1010.16 1070.13C1009.03 1084 1003.22 1096.19 992.721 1106.69C982.223 1117.19 969.85 1123.2 955.603 1124.7C941.355 1125.45 927.295 1118.88 913.422 1105.01ZM903.852 825.405L981.464 903.038L991.034 893.465C1004.91 879.589 1011.47 865.525 1010.72 851.273C1009.22 837.022 1003.22 824.645 992.721 814.144C982.223 803.643 970.038 797.83 956.165 796.705C941.543 795.58 927.295 801.955 913.422 815.832L903.852 825.405Z" fill="white"/>
</svg>
