<svg width="1920" height="1920" viewBox="0 0 1920 1920" fill="none" xmlns="http://www.w3.org/2000/svg">
<rect width="1920" height="1920" fill="white"/>
<path fill-rule="evenodd" clip-rule="evenodd" d="M1121.36 1190C1086.39 1190 1054.19 1184.25 1024.77 1172.75C1014.09 1168.58 1003.92 1163.82 994.252 1158.47C992.978 1159.19 991.694 1159.91 990.401 1160.61C953.725 1180.2 912.572 1190 866.94 1190C821.309 1190 780.155 1180.2 743.479 1160.61C718.206 1146.82 696.679 1129.48 678.899 1108.61L679.006 1183.51H600.324L599.684 887.062L452.554 1132.4H415.452L268.322 890.895V1183.51H189V736.284H257.447L435.283 1032.73L609.919 736.284H678.367L678.475 812.258C696.337 791.046 718.005 773.636 743.479 760.028C780.155 740.009 821.309 730 866.94 730C912.572 730 953.725 740.009 990.401 760.028C991.54 760.636 992.671 761.252 993.794 761.875C1003.6 756.363 1013.92 751.489 1024.77 747.25C1054.19 735.75 1086.18 730 1120.72 730C1155.69 730 1187.68 735.75 1216.67 747.25C1246.1 758.75 1271.69 774.935 1293.44 795.806C1309.26 810.674 1322.48 827.57 1333.11 846.494V736.284H1416.27V920.923H1647.84V736.284H1731V1183.51H1647.84V991.84H1416.27V1183.51H1333.11V1074.14C1322.48 1093.07 1309.26 1109.96 1293.44 1124.83C1271.69 1145.28 1246.1 1161.25 1216.67 1172.75C1187.68 1184.25 1155.9 1190 1121.36 1190ZM1057.56 814.526C1057.72 814.461 1057.87 814.397 1058.03 814.333C1077.22 806.667 1098.12 802.833 1120.72 802.833C1143.32 802.833 1164.22 806.667 1183.41 814.333C1202.6 822 1219.23 833.074 1233.31 847.556C1247.38 861.611 1258.26 878.222 1265.93 897.389C1274.03 916.13 1278.09 937 1278.09 960C1278.09 983 1274.03 1004.08 1265.93 1023.25C1258.26 1041.99 1247.38 1058.6 1233.31 1073.08C1219.23 1087.14 1202.6 1098 1183.41 1105.67C1164.22 1113.33 1143.32 1117.17 1120.72 1117.17C1098.12 1117.17 1077.22 1113.33 1058.03 1105.67C1057.88 1105.61 1057.74 1105.55 1057.59 1105.49C1064.58 1096.96 1070.97 1087.86 1076.76 1078.19C1097.66 1043.27 1108.11 1003.87 1108.11 960C1108.11 916.13 1097.66 876.731 1076.76 841.806C1070.97 832.123 1064.57 823.03 1057.56 814.526ZM930.143 814.77C910.818 806.812 889.751 802.833 866.94 802.833C837.088 802.833 810.22 809.648 786.339 823.278C762.457 836.481 743.692 855.222 730.045 879.5C716.399 903.352 709.575 930.185 709.575 960C709.575 989.815 716.399 1016.86 730.045 1041.14C743.692 1064.99 762.457 1083.73 786.339 1097.36C810.22 1110.56 837.088 1117.17 866.94 1117.17C889.75 1117.17 910.818 1113.31 930.142 1105.6C916.8 1089.44 905.908 1071.57 897.467 1052C885.526 1023.89 879.556 993.222 879.556 960C879.556 926.778 885.526 896.324 897.467 868.639C905.908 848.767 916.8 830.811 930.143 814.77ZM993.945 1056.33C986.38 1046.04 980.022 1034.8 974.87 1022.61C967.194 1003.44 963.356 982.574 963.356 960C963.356 937 967.194 916.13 974.87 897.389C980.009 885.235 986.347 874.108 993.887 864.009C997.46 868.894 1000.78 874.058 1003.83 879.5C1017.48 903.352 1024.31 930.185 1024.31 960C1024.31 989.815 1017.48 1016.86 1003.83 1041.14C1000.79 1046.46 997.496 1051.52 993.945 1056.33Z" fill="black"/>
</svg>
